<mxfile host="app.diagrams.net" modified="2023-07-02T14:32:32.874Z" agent="Mozilla/5.0 (X11; Linux x86_64) AppleWebKit/537.36 (KHTML, like Gecko) Chrome/114.0.0.0 Safari/537.36 Edg/114.0.1823.67" version="21.5.2" etag="RMWN3qoV0eVKPbye0cYu" type="google">
  <diagram name="Pagina-1" id="BHUKl6vwAU4INke-qNeL">
    <mxGraphModel>
      <root>
        <mxCell id="0" />
        <mxCell id="1" parent="0" />
      </root>
    </mxGraphModel>
  </diagram>
</mxfile>
